<svg xmlns="http://www.w3.org/2000/svg" xmlns:xlink="http://www.w3.org/1999/xlink" version="1.1" x="0px" y="0px" viewBox="-20 -20 140 140" xml:space="preserve">
	<path fill="#eee" d="M94.8,40.8L84.2,39c-0.6-1.9-1.4-3.7-2.3-5.5l6.2-8.7c0.9-1.3,0.8-3.1-0.3-4.2l-8.5-8.5c-1.1-1.1-2.9-1.3-4.2-0.3    l-8.7,6.2c-1.7-0.9-3.6-1.7-5.5-2.3L59.2,5.2c-0.3-1.6-1.6-2.7-3.2-2.7H44c-1.6,0-2.9,1.1-3.2,2.7L39,15.8    c-1.9,0.6-3.7,1.4-5.5,2.3l-8.7-6.2c-1.3-0.9-3.1-0.8-4.2,0.3l-8.5,8.5c-1.1,1.1-1.3,2.9-0.3,4.2l6.2,8.7    c-0.9,1.7-1.7,3.6-2.3,5.5L5.2,40.8c-1.6,0.3-2.7,1.6-2.7,3.2v12c0,1.6,1.1,2.9,2.7,3.2L15.8,61c0.6,1.9,1.4,3.7,2.3,5.5l-6.2,8.7    c-0.9,1.3-0.8,3.1,0.3,4.2l8.5,8.5c1.1,1.1,2.9,1.3,4.2,0.3l8.7-6.2c1.7,0.9,3.6,1.7,5.5,2.3l1.8,10.6c0.3,1.6,1.6,2.7,3.2,2.7h12    c1.6,0,2.9-1.1,3.2-2.7L61,84.2c1.9-0.6,3.7-1.4,5.5-2.3l8.7,6.2c1.3,0.9,3.1,0.8,4.2-0.3l8.5-8.5c1.1-1.1,1.3-2.9,0.3-4.2    l-6.2-8.7c0.9-1.7,1.7-3.6,2.3-5.5l10.6-1.8c1.6-0.3,2.7-1.6,2.7-3.2V44C97.5,42.4,96.4,41.1,94.8,40.8z M50,67.1    c-9.5,0-17.1-7.7-17.1-17.1c0-9.5,7.7-17.1,17.1-17.1S67.1,40.5,67.1,50C67.1,59.5,59.5,67.1,50,67.1z"/>
</svg>